{
	"asset":{
		"generator":"Khronos glTF Blender I/O v3.6.27",
		"version":"2.0"
	},
	"scene":0,
	"scenes":[
		{
			"name":"Scene",
			"nodes":[
				0
			]
		}
	],
	"nodes":[
		{
			"mesh":0,
			"name":"123"
		}
	],
	"meshes":[
		{
			"name":"123.001",
			"primitives":[
				{
					"attributes":{
						"POSITION":0,
						"NORMAL":1
					},
					"indices":2
				}
			]
		}
	],
	"accessors":[
		{
			"bufferView":0,
			"componentType":5126,
			"count":190421,
			"max":[
				11.771280288696289,
				18.15512466430664,
				3.8312838077545166
			],
			"min":[
				-11.771280288696289,
				-10.865710258483887,
				-3.8312838077545166
			],
			"type":"VEC3"
		},
		{
			"bufferView":1,
			"componentType":5126,
			"count":190421,
			"type":"VEC3"
		},
		{
			"bufferView":2,
			"componentType":5125,
			"count":361353,
			"type":"SCALAR"
		}
	],
	"bufferViews":[
		{
			"buffer":0,
			"byteLength":2285052,
			"byteOffset":0,
			"target":34962
		},
		{
			"buffer":0,
			"byteLength":2285052,
			"byteOffset":2285052,
			"target":34962
		},
		{
			"buffer":0,
			"byteLength":1445412,
			"byteOffset":4570104,
			"target":34963
		}
	],
	"buffers":[
		{
			"byteLength":6015516,
			"uri":"50.bin"
		}
	]
}
